<?xml version="1.0" standalone="no"?>
<!DOCTYPE svg PUBLIC "-//W3C//DTD SVG 20010904//EN"
 "http://www.w3.org/TR/2001/REC-SVG-20010904/DTD/svg10.dtd">
<svg version="1.0" xmlns="http://www.w3.org/2000/svg"
 width="200.000000pt" height="200.000000pt" viewBox="0 0 200.000000 200.000000"
 preserveAspectRatio="xMidYMid meet">
<metadata>
Created by potrace 1.14, written by Peter Selinger 2001-2017
</metadata>
<g transform="translate(0.000000,200.000000) scale(0.100000,-0.100000)"
fill="#000000" stroke="none">
<path d="M835 1762 c-256 -76 -435 -313 -435 -577 0 -251 169 -483 410 -565
81 -28 217 -37 302 -21 195 38 378 193 446 380 114 314 -49 659 -365 773 -83
29 -274 35 -358 10z m290 -77 c85 -23 172 -72 235 -135 52 -53 118 -155 107
-167 -3 -3 -40 16 -82 41 -42 25 -78 46 -81 46 -3 0 -2 -9 1 -20 8 -24 7 -24
-39 -5 -20 8 -36 21 -36 29 0 16 -45 37 -64 30 -8 -3 -48 10 -90 30 -70 32
-76 33 -76 15 0 -24 2 -25 -114 12 -54 17 -100 29 -102 27 -2 -3 232 -110 279
-127 6 -2 8 5 5 17 -8 28 16 19 60 -21 30 -29 32 -35 32 -97 l0 -66 -45 -12
c-25 -7 -50 -12 -56 -12 -20 0 3 20 39 36 34 14 35 16 17 26 -19 11 -19 11 0
18 18 6 17 8 -10 23 l-30 16 35 -5 c33 -5 34 -5 16 10 -11 9 -36 17 -55 17
-28 1 -30 3 -11 6 14 3 29 8 33 12 11 10 -77 23 -99 14 -12 -5 -15 -3 -9 6 6
11 3 11 -16 0 -13 -7 -37 -15 -54 -19 -30 -6 -30 -6 -27 -65 2 -33 10 -73 18
-89 16 -34 7 -51 -34 -61 -75 -18 -83 -40 -89 -240 -1 -77 -4 -151 -6 -165 -3
-33 43 -51 68 -26 15 14 15 21 5 47 -17 40 -9 45 22 14 23 -23 32 -25 84 -22
65 5 158 32 173 51 7 8 4 21 -9 40 l-18 29 -16 -32 c-9 -17 -18 -31 -20 -31
-3 0 -13 -3 -23 -6 -17 -5 -17 -5 0 6 23 15 47 70 47 108 0 16 7 60 16 98 l16
69 59 27 c82 37 85 48 48 180 -7 26 -11 50 -8 53 3 3 41 -11 83 -30 73 -33 77
-34 71 -14 -7 20 -5 21 21 15 73 -19 91 -32 103 -79 15 -64 14 -182 -4 -250
-66 -256 -323 -422 -581 -378 -251 44 -428 255 -428 511 0 331 319 578 639
495z m95 -223 c0 -13 -3 -13 -22 0 -33 22 -36 41 -4 27 14 -7 26 -19 26 -27z
m-35 -20 c14 -9 55 -154 55 -191 0 -26 -6 -32 -57 -55 -31 -15 -57 -25 -58
-24 -1 2 -7 23 -14 47 -10 36 -10 45 1 52 23 15 56 10 61 -8 3 -10 3 23 0 72
-2 50 -6 96 -8 103 -5 13 5 16 20 4z m-173 -59 c36 -33 9 -133 -28 -102 -8 6
-25 9 -38 5 -25 -6 -36 12 -36 58 0 48 64 73 102 39z m-32 -124 c0 -5 -9 -9
-20 -9 -19 0 -26 11 -14 23 8 8 34 -3 34 -14z m70 -31 c0 -6 -6 -5 -15 2 -8 7
-15 14 -15 16 0 2 7 1 15 -2 8 -4 15 -11 15 -16z m-100 -18 c6 -11 24 -27 40
-35 20 -10 30 -23 30 -38 0 -37 -16 -51 -67 -58 l-48 -6 47 -2 c57 -1 78 17
78 65 0 23 4 33 11 28 6 -3 4 4 -5 18 -15 23 -14 24 7 24 30 0 37 -12 37 -68
0 -43 -2 -48 -22 -48 -21 0 -21 -1 -3 -14 13 -9 16 -19 10 -32 -7 -17 -8 -17
-15 6 -8 24 -8 24 -9 3 -1 -16 -7 -23 -21 -23 -11 0 -20 5 -20 10 0 6 -4 10
-8 10 -15 0 -42 -99 -35 -130 6 -33 5 -34 -30 -21 -35 14 -52 108 -31 177 8
27 13 56 11 64 -2 8 -8 -8 -15 -36 -6 -29 -21 -68 -32 -87 -14 -23 -19 -44
-15 -57 4 -12 1 -43 -6 -71 -10 -38 -10 -52 -1 -61 16 -16 15 -29 0 -26 -7 2
-12 -3 -10 -9 1 -7 -4 -13 -12 -13 -17 0 -38 24 -29 34 4 3 7 70 9 149 1 78 5
156 9 172 9 37 33 65 54 65 9 0 27 7 41 14 34 19 38 19 50 -4z m88 -207 c-2
-12 -12 -18 -28 -18 -16 0 -26 6 -28 18 -3 13 3 17 28 17 25 0 31 -4 28 -17z
m-158 -32 c0 -39 -16 -48 -23 -13 -6 29 -1 42 14 42 5 0 9 -13 9 -29z m132
-37 c-22 -46 -42 -44 -42 4 0 37 1 38 29 34 l30 -4 -17 -34z"/>
<path d="M930 1325 c7 -9 15 -13 17 -11 7 7 -7 26 -19 26 -6 0 -6 -6 2 -15z"/>
<path d="M965 1330 c-8 -13 5 -13 25 0 13 8 13 10 -2 10 -9 0 -20 -4 -23 -10z"/>
<path d="M660 465 c0 -51 3 -65 15 -65 8 0 15 5 15 10 0 6 11 10 24 10 45 0
72 50 44 78 -7 7 -25 12 -40 12 -15 0 -28 5 -28 10 0 6 -7 10 -15 10 -12 0
-15 -14 -15 -65z m77 9 c6 -16 -12 -34 -34 -34 -7 0 -13 11 -13 25 0 18 5 25
20 25 11 0 23 -7 27 -16z"/>
<path d="M799 518 c-6 -67 -3 -118 8 -118 7 0 13 9 13 20 0 11 7 20 15 20 8 0
20 -9 27 -20 18 -29 43 -27 27 2 -9 16 -9 23 0 26 6 2 11 17 11 33 0 22 -6 32
-26 39 -35 14 -74 12 -75 -2z m66 -21 c23 -17 12 -37 -21 -37 -17 0 -24 6 -24
18 0 33 16 40 45 19z"/>
<path d="M930 485 c0 -64 13 -85 53 -85 18 0 38 5 45 12 14 14 16 118 2 118
-5 0 -10 -20 -10 -44 0 -82 -57 -91 -62 -10 -4 64 -28 72 -28 9z"/>
<path d="M1079 525 c-1 -3 -1 -14 -1 -25 0 -72 3 -100 12 -100 6 0 10 17 11
38 0 32 2 35 12 19 35 -54 33 -53 56 -17 l21 35 0 -37 c0 -27 4 -38 15 -38 12
0 15 13 15 59 0 33 -4 62 -10 66 -5 3 -21 -12 -36 -35 -15 -22 -28 -40 -30
-40 -1 0 -13 18 -25 40 -20 35 -37 50 -40 35z"/>
<path d="M1266 469 c-26 -60 -27 -91 -2 -56 17 22 76 24 76 2 0 -8 7 -15 15
-15 19 0 20 -2 -11 69 -15 34 -32 61 -39 61 -7 0 -24 -28 -39 -61z m54 -5 c0
-8 -7 -14 -15 -14 -15 0 -21 21 -9 33 10 9 24 -2 24 -19z"/>
<path d="M230 450 c0 -6 48 -10 125 -10 77 0 125 4 125 10 0 6 -48 10 -125 10
-77 0 -125 -4 -125 -10z"/>
<path d="M1550 450 c0 -6 48 -10 125 -10 77 0 125 4 125 10 0 6 -48 10 -125
10 -77 0 -125 -4 -125 -10z"/>
</g>
</svg>
